# xmcd
#
# Track frame offsets:
#	150
#	16655
#	28327
#	41232
#	52770
#	58667
#	73840
#	80990
#	88942
#	97965
#	102342
#	107450
#	119937
#	129602
#	138065
#	192710
#	202240
#	212955
#	232182
#	239400
#	246352
#	254550
#
# Disc length: 3524 seconds
#
# Revision: 1
# Processed by: cddbd v1.5.1PL0 Copyright (c) Steve Scherf et al.
# Submitted via: CDex 1.50Beta5
#
DISCID=5c0dc216
DTITLE=Various Artist - ウィンター・スペシャル4 -祈りと安らぎ-
DYEAR=1900
DGENRE=Classical
TTITLE0=グレゴリオ聖歌集 聖霊降誕後第3主日のミサ固有文
TTITLE1=2.昇階唱「汝の思いを主に委ねよ」
TTITLE2=3.ハレルヤ唱「汝を選ばん」
TTITLE3=4.奉納唱「我は呼べり」
TTITLE4=ミサ通常文 1.キリエ(憐れみの賛歌)
TTITLE5=2.グロリア(栄光の賛歌)
TTITLE6=3.サンクトゥス(感謝の賛歌)
TTITLE7=4.アニュス・デイ(平和の賛歌)
TTITLE8=クリスマス早朝の聖務日課 1.アンティフォナ
TTITLE9=2.アンティフォナ
TTITLE10=3.アンティフォナ
TTITLE11=4.レスポンソリウム
TTITLE12=5.レスポンソリウム
TTITLE13=6.レスポンソリウム
TTITLE14=7.プローザ
TTITLE15=パレストリーナ:ミサ・ブレヴィス キリエ
TTITLE16=グロリア
TTITLE17=クレド
TTITLE18=サンクトゥス
TTITLE19=ベネディクトゥス
TTITLE20=アニュス・デイ 1
TTITLE21=アニュス・デイ 2
EXTD=
EXTT0=
EXTT1=
EXTT2=
EXTT3=
EXTT4=
EXTT5=
EXTT6=
EXTT7=
EXTT8=
EXTT9=
EXTT10=
EXTT11=
EXTT12=
EXTT13=
EXTT14=
EXTT15=
EXTT16=
EXTT17=
EXTT18=
EXTT19=
EXTT20=
EXTT21=
PLAYORDER=
